<svg xmlns="http://www.w3.org/2000/svg" viewBox="0 -48 48 48">
    <path d="M 8 -40 L 24 -40 L 24 -30 L 18 -24 L 24 -18 L 24 -8 L 8 -8 L 8 -18 L 14 -24 L 8 -30 L 8 -8 L 8 -32 M 12 -36 L 20 -36 L 20 -32 L 16 -28 L 12 -32 M 12 -12 L 20 -12 L 20 -16 L 16 -20 L 12 -16" fill="#FFFFFF" fill-rule="evenodd" />
    <path d="M 28 -12 L 32 -12 L 32 -8 L 28 -8" fill="#FFFFFF" />
    <path d="M 28 -19 L 34 -19 L 34 -15 L 28 -15" fill="#FFFFFF" />
    <path d="M 28 -26 L 36 -26 L 36 -22 L 28 -22" fill="#FFFFFF" />
    <path d="M 28 -33 L 38 -33 L 38 -29 L 28 -29" fill="#FFFFFF" />
    <path d="M 28 -40 L 40 -40 L 40 -36 L 28 -36" fill="#FFFFFF" />
</svg>
